<?xml version="1.0" encoding="UTF-8"?>
<svg xmlns="http://www.w3.org/2000/svg" version="1.1" viewBox="0 0 8192 8192">
  <defs>
    <style>
      .cls-1 {
        fill: none;
        stroke: #231f20;
        stroke-miterlimit: 7.6;
        stroke-width: 18.7px;
      }
    </style>
  </defs>
  <!-- Generator: Adobe Illustrator 28.7.7, SVG Export Plug-In . SVG Version: 1.2.0 Build 194)  -->
  <g>
    <g id="Brief">
      <path id="BriefRightCuff" class="cls-1" d="M6462.4,4541c-267.6,168.5-507.8,428.8-727.3,755.6-221.2,329.3-359.4,666.6-457.7,1102.7-27.5,121.9-97.7,83.1,84.7,152.7,81.1,30.9,158.5,61.7,236,102.7,154.1,81.5,301.9,182.2,471.8,222.9,39.2,9.4,81.8,15.1,118.5-2.4,62.9-29.8,83.7-111.6,105.9-181.1,130.4-408.5,519.7-645.3,779.6-975.8,138.3-175.8,242-432.7,129.9-628.7-47.1-82.3-124.6-138.1-189.3-205.4-75.8-78.7-141.2-257.1-178.8-362.6,0,0-145.7-124.1-373.3,19.2h0v.2Z"/>
      <path id="BriefLeftCuff" class="cls-1" d="M2331.4,5497.2c-338.7-556.1-518.9-685.8-843.5-993.5-97.5-92.5-282-294.1-380.5-204.3-128.3,117-250.5,348.1-355.1,488.8-59.5,80.2-120,161.9-155.6,256.9s-43.4,207.2,1.8,297.3c85.4,170.4,302.1,188.6,464.4,274.3,284.8,150.4,398.9,515.2,466.2,846.7,18.4,91,36.1,184.2,79.6,265s118.5,148.6,205.6,154c93.9,5.8,177-58.7,256-113.2,165.4-114.1,350.4-195.8,542.9-239.8,30.8-7.1,143.1-23.2,131.3-54.5-55.1-145.8-16.5-203.8-98.8-411.4-70.6-178-157.9-309.6-314.3-566.2h0Z"/>
      <path id="BriefBody" class="cls-1" d="M6633.9,4085.2c-6.5-54.9-14.3-113.8-23-175.6h0c-2.2-15.4-4.4-30.9-6.8-46.7-.3-1.9-.5-3.7-.8-5.6-.2-1.4-.4-2.8-.6-4.2h0c-77.7-527.3-223.1-1243.7-334.1-1671l-35-153.1c-40.5-123.8-105.9-78.3-177.3-49.1-295.4,120.8-1003.3,107.6-1477.9,108.6-813.9,1.8-1544.7-81.5-1989.5-135.3-239.8-27.7-468.9-94.3-699.1-170.6,0,0-11.9-6.1-28.4-9-17.5-4.6-36.3-2.7-52.1,7.4-23.1,13.1-43.1,43.4-47.3,107.5-41.6,643.7-151.7,1347.7-474.8,1923.6-23.9,42.6-48.8,84.5-75.1,125.6-70,109.5-209.4,208.6-103.7,364.2,68.7-59.5,168.3,4.9,234.7,67.4,285.2,268.7,592.8,522.2,811.8,854.2,654.8,993,494,911.3,579.5,1229.8,36.6,136.1,197.4,44.8,503.9,28.1,264-14.3,748.6,4.9,1013,7.6,247.3,2.6,497.4,5.5,737.1,70,63.3,17,133,37.6,190.9,5.8,66.7-36.6,87.8-125.4,105.1-203.3,150-680.6,525.6-1301.9,1044.6-1728.4,146.8-120.6,355.9-226.5,506.5-111.4,31.5-183.8-168.6-157.5-201.6-436.7h0v.2Z"/>
      <path id="BriefWaistband" class="cls-1" d="M5384.5,2079.8c126.2-3,286.6-21.4,412.1-35.9,132.8-15.2,231.8-57.6,359.2-100.7-256.2-265.4-240.3-655-354.2-1016.1-8.2-26-18.4-53.8-40.4-68.1-16.9-11-37.8-11.9-57.6-12.1-277.8-2-548.9,81.5-822.5,132.7-746.3,139.6-1532.7,43.7-2253.9-191.5-63.1-20.6-128.6-62.9-192.3-27.4-74,41.2-110.7,153.6-139.6,230.4-106.7,283.3-253,543.6-432.6,781.3,730.1,289.1,2298.1,336.6,3521.9,307.1v.2h-.1Z"/>
    </g>
  </g>
</svg>