<?xml version="1.0" encoding="UTF-8"?>
<svg xmlns="http://www.w3.org/2000/svg" version="1.1" viewBox="0 0 8192 8192">
  <defs>
    <style>
      .cls-1 {
        fill: none;
        stroke: #231f20;
        stroke-miterlimit: 7.6;
        stroke-width: 20.5px;
      }
    </style>
  </defs>
  <!-- Generator: Adobe Illustrator 28.7.7, SVG Export Plug-In . SVG Version: 1.2.0 Build 194)  -->
  <g>
    <g id="Abrazo">
      <path id="AZRightCuff" class="cls-1" d="M5294.7,3114.3c130.9,17.6,806.2,78.6,1163.6,251.4,33.9,16.4,68.3,34.4,91.6,63,41.8,51.6,8.7,81.8,3.4,132.7-6.2,59.9,5.5,110.1,38.5,162.8,33.5,53.6,78.6,99.9,112.1,153.5,126.7,202.7,66.1,460,.8,687.4-13.8,48.1-27.6,99.7-10.5,146.8,8.1,22.4,22.8,42,34.2,63,47.8,88.3,35.5,194,53.6,291.9,18.2,98.8,67.8,191,81.1,290.5,23.7,177.9-70.4,348.8-161.6,505.8-38.2,65.7-78.5,133.7-143.7,175.9-46.1,29.8-101,44.2-154.8,58.1-260.2,67.2-494.6,134.3-754.9,201.5,25.1-312.2-18.1-504.9-101-736-39-108.8-132.3-206.2-158.5-318.5-35.3-152,4-265.6,67.4-383.3,63.3-117.7,163.8-226.9,259.6-322.7,186.1-186,256.2-320.5,276.8-469.8,19.4-141.2-30.9-303.3-148-391.8-179.5-135.8-656.1-576.7-549.6-562.4h0v.2h-.1Z"/>
      <path id="AZLeftCuff" class="cls-1" d="M1195.6,3254.4c-204.1,245.5,32.5,462.5,238.8,585.7,17.7,10.5,36.7,21.6,45.7,39.5,11.2,22.3,3.9,48.6-3,72.4-34.1,116.3-57.3,235.5-69,355.7-8.1,83.2-10.9,167.2-27.8,249.2-65.8,319.6-340.2,587-345.4,912.6-3.3,213.3,110.8,410.7,160,618.9,16.5,69.9,29.1,147.3,85.6,194.6,70.9,59.3,178.2,45.6,271.8,33.8,234.7-29.6,492.6-24.3,725.6,15.6,6.1-222.5,12.2-444.9,18.3-667.5,3.8-137.8,23.6-280.8,60.8-407.3,25.5-86.6,81.5-163.5,150.7-224.7,68.3-60.2,138.5-123.6,183.7-201.1,65.2-111.7,13.3-209.1-29.1-285.1-82.7-148.6-170.5-278.1-244.8-427.9-115.9-233.7-188.6-376.1-150.9-441.9,44.4-77.6,104-131.8,171.7-192.2,118.9-106.1,210.3-224.7,356.7-300.7-275.2-11.1-487.8-130.8-723-152.3-574.2-52.6-769.4,93.8-876.5,222.5v.2h.1Z"/>
      <path id="AZMiddle" class="cls-1" d="M5069.6,6682.4c130.7-10.9,271.1,12,383.9-51.9,186.5-105.7,215.3-349.6,202.4-556-11.5-183.2-40.1-368.6-122-534.8-53.7-108.8-130.4-210.1-153.2-328.4-43.9-227.3,119.6-439.8,280.6-612.7,161-172.9,340.1-364.5,335.9-595.6-2.2-118-56.4-234.4-146.9-315-184.8-164.6-385.9-319.8-534.5-514.8-14.4-19-28.3-39.1-48.5-52.3-15.2-9.9-33.1-15.2-50.7-20.5-386.7-115-789.2-210-1175.9-325-387.8,128.1-775.6,256.2-1163.4,384.4-46.7,15.4-93.9,31.1-135.9,56-42.4,25.1-78.2,58.9-113.7,92.5-103.1,97.5-206.2,195-309.2,292.6-22.6,21.4-46,43.9-56.1,72.7-12,34.3-3.2,71.7,7.1,106.4,80.3,270,246.8,507.7,386.2,755,33.8,60,67,123.9,65.9,192.1-2.5,167.2-194,264.4-295.9,400.6-93.1,124.2-110.6,284.4-121.7,436.6-20.7,284.9-29.4,570.6-26.1,856.2.8,63.6,2.9,130,35,185.8,76.2,132.4,269.6,127.1,428.1,127.6,622.3,2.3,1685.8,2.3,2328.7-51.5h-.1Z"/>
      <path id="AZRghtTab" class="cls-1" d="M4692,2955c-237.3-62.1-535.4-134.2-657.2-187.4,197.3-84.3,409.2-184.8,569.8-322.7s277.3-338.2,255.8-543.2c-14-133.1-84.6-256.4-176.8-357.3s-205.6-181.9-319.6-260.2c253-167.7,550.2-274.4,856.4-307.4,134.8-14.6,270.9-15.1,406.6-13,295,4.5,589.8,21.1,883.3,49.8,444.6,43.5,232.8,426.4,176.4,703.3-21.5,105.5-28.3,213.1-35.1,320.4-19.5,309.6-39.1,619-58.6,928.6-.7,11.4-1.4,23.1,3.2,33.7,6.1,14,20.3,23.1,33.5,31.9,101.5,68,180,177.6,177,295.7-3,118.2-126.2,234.5-250.2,229.5,24.4-43.5,24-100-12.1-135.4s-85.8-54.7-134-72.9c-206.2-78.1-414.9-141.8-634.4-172.3-116.1-16.1-233.6-32.9-350.2-44.2-184.9-17.9-551.1-129.1-733.5-176.9h-.3,0Z"/>
      <path id="AZLeftTab" class="cls-1" d="M1412.7,1729.1c-24.7,151.8-66,301.3-78.9,454.4-15.5,184.5,10.4,370.4-2.4,555.2-1.7,25.2-4.4,50.9-15.9,73.6-18.4,36.1-56.1,59-91.4,80.9-115.5,71.8-228.6,159-282.9,279.7-54.2,120.8-30.5,282,85.3,353.4,12.4,7.6,26.1,14.3,40.8,14.7,61.3,1.9,53.6-82.2,57.9-140.4,7.1-96.2,83.6-183.5,164.4-241.5,80.9-58,179.2-89.8,278.1-110.3,198.6-41.1,406.6-39.9,604.7,3.6,201.2,44.2,402.8,118.9,604.7,132.2,69,4.6,134.9-42.9,200.6-63.4,165.8-51.8,331.6-107.1,497.4-158.9,398-124.3,795.5-254.1,1117-509.7,153.6-122.1,272.5-295.8,270.7-486.4-1.3-140.8-56.7-270.8-146.7-382.4-91.4-113.2-215.6-210.3-343.8-290.4-157.2-98.3-339.7-97.4-526.3-120.1-615.9-75.2-1226.8-187.1-1828-334.9-106.4-26.2-213.8-53.6-323.7-55.8-79-1.5-215.6,8.3-272.9,69.3-55.4,58.9-16.6,140.4-5.6,211.6,33.8,220.3,33,445.6-3,665.6h-.2.1Z"/>
    </g>
  </g>
</svg>