<?xml version="1.0" encoding="UTF-8"?>
<svg xmlns="http://www.w3.org/2000/svg" version="1.1" viewBox="0 0 8192 8192">
  <defs>
    <style>
      .cls-1 {
        fill: none;
        stroke: #231f20;
        stroke-miterlimit: 7.6;
        stroke-width: 20.3px;
      }
    </style>
  </defs>
  <!-- Generator: Adobe Illustrator 28.7.7, SVG Export Plug-In . SVG Version: 1.2.0 Build 194)  -->
  <g>
    <g id="Traditional">
      <path id="TDCRightCuff" class="cls-1" d="M5826.6,6603.9c47.7,5.5,95.1,18.4,143,15.1s98.8-27.8,114.8-73.3c6.3-17.8,6.7-37.2,7.3-56.1,12.1-397.8,140.3-795.4,384.6-1108.4,81.4-104.2,174.7-198.5,270.2-289.8,117.6-112.3,238.9-220.7,363.6-324.6,36.7-30.6,76.2-65,84.1-112.2,11.5-68.6-46.7-126.2-95-176-76-78.3-139.5-169.9-177.9-272.2-12-31.9-22-65.5-43.4-91.9-34.9-43-95-55.6-149.8-49.5s-105.8,30.7-154.4,57c-430.1,231.3-779.3,608.3-974.5,1057.8-97,223.4-155.7,463.2-175,706.1-9.8,123.5-6.3,247.7,4.3,371.1,8,92.8,41.3,262.1,58.9,337.2,12.2,52.1,67.2,34.1,114.8,25.9,74.7-12.8,148.3-24.8,224.3-16v-.2h.1Z"/>
      <path id="TDCLeftCuff" class="cls-1" d="M925.8,3901.9s-165.1,231-266.3,332.2c-236.3,284.7,385.4,374.1,644.4,968.5,97.4,223.5,203.8,447.8,231.4,688.1,24.3,148.7-34.1,325.8,33.7,445.4,97.8,164.3,323.4,121.6,488.2,124.3,84.1-4.7,148.7,60.8,213.1,13.8,78.1-57,126-611.5-41.7-1040-111.8-285.5-312.1-669.3-581.5-986.5-298.7-351.6-567.6-659.9-721.2-545.9h-.1Z"/>
      <path id="TDCBody" class="cls-1" d="M6918.8,4223.4c4.6,53.8,40-100.7,23.7-152.1-180.2-325.5-180-714.7-257-1073.9-52.1-258-70.1-507.1-142.3-763.6-45.5-131.1-119-82.8-199.3-52-332.1,127.9-1127.8,113.9-1661.2,115.1-914.8,1.9-1736.2-86.3-2236.3-143.3-269.6-29.4-527.1-99.8-785.7-180.6-258.4-41.4-93.6,499.6-546.1,1306.6-99.4,194.3-290.7,420.3-202.4,637.5,177.4-203,627.4,427.5,740,536.6,371.7,442.7,666.2,987.4,692.5,1574.8,1.9,122.2-16.7,524.7-125.2,461.3,47.8,27.9,186.5,94.1,332.6,106.3,222.3,18.7,319.8,80.8,538.8,97,609.3,47.2,1220.5,59.5,1830.8,40.7,608.6-28.2,607.6,15.9,548.4-215-214.7-1005.3,280-1993.4,1178.6-2432.4,0,0,249.6-104.4,270.3,137.1v-.2h-.2Z"/>
      <path id="TDCWaistband" class="cls-1" d="M2113.8,1134.8c-119.9,300-284.4,575.5-486.2,827.2,820.6,306.1,2583.1,356.4,3958.7,325.2,141.8-3.2,322.1-22.7,463.2-37.9,149.3-16.2,260.6-61.1,403.8-106.5-287.9-281-270.1-693.4-398.1-1075.7-9.3-27.5-20.7-57-45.4-72.1-19-11.7-42.6-12.6-64.9-12.7-312.2-2-617,86.3-924.5,140.5-838.8,147.8-1722.8,46.2-2533.5-202.7-70.9-21.8-144.5-66.5-216.2-29-83.2,43.6-124.4,162.6-156.9,243.9h0v-.2Z"/>
    </g>
  </g>
</svg>