<?xml version="1.0" encoding="UTF-8"?>
<svg xmlns="http://www.w3.org/2000/svg" version="1.1" viewBox="0 0 10800 10800">
  <defs>
    <style>
      .cls-1 {
        stroke-width: 27px;
      }

      .cls-1, .cls-2, .cls-3 {
        fill: none;
        stroke: #231f20;
        stroke-miterlimit: 10;
      }

      .cls-2 {
        stroke-width: 26.8px;
      }

      .cls-3 {
        stroke-width: 24.6px;
      }
    </style>
  </defs>
  <!-- Generator: Adobe Illustrator 28.7.7, SVG Export Plug-In . SVG Version: 1.2.0 Build 194)  -->
  <g>
    <g id="Brief">
      <path id="BriefRightCuff" class="cls-3" d="M8519.7,5986.7c-352.8,222.1-669.5,565.3-958.9,996.2-291.6,434.2-473.8,878.8-603.4,1453.8-36.2,160.7-128.8,109.6,111.7,201.3,106.9,40.7,209,81.4,311.1,135.4,203.1,107.5,398,240.2,622,293.8,51.7,12.4,107.8,19.9,156.2-3.1,82.9-39.3,110.3-147.1,139.6-238.7,171.9-538.5,685.1-850.7,1027.8-1286.4,182.3-231.8,319-570.5,171.2-828.8-62.1-108.5-164.3-182.1-249.6-270.8-99.9-103.8-186.1-339-235.7-478,0,0-192.1-163.6-492.1,25.3Z"/>
      <path id="BriefLeftCuff" class="cls-3" d="M3073.6,7247.3c-446.5-733.1-684.1-904.1-1112-1309.8-128.5-121.9-371.8-387.7-501.6-269.4-169.2,154.3-330.3,458.9-468.1,644.4-78.5,105.7-158.2,213.4-205.1,338.7-46.9,125.3-57.2,273.1,2.4,392,112.6,224.6,398.3,248.6,612.2,361.6,375.5,198.3,525.9,679.2,614.6,1116.2,24.3,120,47.6,242.9,104.9,349.4,57.3,106.5,156.2,195.9,271,203,123.8,7.7,233.3-77.4,337.5-149.3,218.1-150.4,461.9-258.2,715.7-316.2,40.6-9.3,188.6-30.6,173.1-71.8-72.7-192.2-21.7-268.7-130.3-542.4-93.1-234.7-208.2-408.1-414.3-746.5Z"/>
      <path id="BriefBody" class="cls-3" d="M8745.9,5385.7c-8.6-72.4-18.8-150-30.3-231.5h0s0,0,0,0c-2.9-20.3-5.8-40.8-8.9-61.6-.4-2.5-.7-4.9-1.1-7.4-.3-1.8-.5-3.7-.8-5.5,0,0,0,0,0,0-102.4-695.2-294.1-1639.7-440.4-2203l-46.2-201.8c-53.4-163.2-139.6-103.2-233.8-64.7-389.5,159.2-1322.7,141.9-1948.4,143.2-1073,2.4-2036.5-107.5-2622.9-178.4-316.2-36.5-618.2-124.3-921.6-224.9,0,0-15.7-8-37.5-11.8-23.1-6-47.8-3.5-68.7,9.7-30.4,17.3-56.8,57.2-62.3,141.7-54.8,848.6-200,1776.8-626,2536-31.5,56.1-64.4,111.4-99,165.6-92.3,144.3-276,275-136.7,480.2,90.6-78.5,221.9,6.5,309.4,88.9,376,354.3,781.5,688.4,1070.2,1126.2,863.2,1309.1,651.3,1201.4,764,1621.3,48.2,179.4,260.3,59,664.3,37,348.1-18.9,986.9,6.4,1335.5,10,326,3.4,655.7,7.2,971.8,92.3,83.4,22.4,175.3,49.6,251.7,7.6,87.9-48.3,115.8-165.3,138.5-268,197.8-897.3,692.9-1716.4,1377.2-2278.7,193.5-159,469.2-298.6,667.7-146.8,41.5-242.3-222.3-207.6-265.8-575.7Z"/>
      <path id="BriefWaistband" class="cls-3" d="M7098.7,2741.9c166.4-4,377.8-28.2,543.3-47.3,175.1-20.1,305.6-76,473.5-132.7-337.7-349.9-316.8-863.5-467-1339.6-10.8-34.3-24.3-70.9-53.3-89.8-22.3-14.5-49.9-15.7-76-15.9-366.2-2.6-723.6,107.5-1084.3,174.9-983.9,184-2020.7,57.6-2971.4-252.4-83.2-27.1-169.5-82.9-253.5-36.1-97.6,54.3-145.9,202.5-184.1,303.8-140.7,373.5-333.5,716.6-570.3,1030,962.5,381.2,3029.7,443.8,4643.1,404.9Z"/>
    </g>
    <g id="Traditional">
      <path id="TDCRightCuff" class="cls-2" d="M7681.5,8706.3c62.9,7.3,125.4,24.3,188.5,19.9,63.2-4.4,130.2-36.7,151.4-96.7,8.3-23.5,8.8-49,9.6-73.9,16-524.4,184.9-1048.6,507.1-1461.3,107.3-137.4,230.3-261.7,356.2-382,155-148.1,314.9-290.9,479.4-428,48.4-40.3,100.4-85.7,110.9-147.9,15.2-90.4-61.6-166.4-125.3-232-100.2-103.2-183.9-224-234.6-358.9-15.8-42-29-86.4-57.2-121.2-46-56.7-125.2-73.3-197.5-65.3-72.3,8-139.5,40.5-203.6,75.1-567,305-1027.4,802-1284.7,1394.5-127.9,294.5-205.3,610.7-230.7,930.9-12.9,162.8-8.3,326.6,5.7,489.3,10.6,122.3,54.5,345.5,77.7,444.6,16.1,68.7,88.6,44.9,151.4,34.2,98.5-16.9,195.5-32.7,295.7-21.1Z"/>
      <path id="TDCLeftCuff" class="cls-2" d="M1220.6,5144.1s-217.7,304.5-351.1,438c-311.5,375.3,508.1,493.2,849.6,1276.8,128.4,294.6,268.7,590.4,305.1,907.2,32,196-45,429.5,44.4,587.2,128.9,216.6,426.3,160.3,643.6,163.9,110.9-6.2,196,80.1,280.9,18.2,103-75.1,166.1-806.2-55-1371.1-147.4-376.4-411.4-882.4-766.6-1300.5-393.8-463.5-748.3-870-950.8-719.7Z"/>
      <path id="TDCBody" class="cls-2" d="M9121.5,5568c6.1,70.9,52.7-132.7,31.3-200.5-237.6-429.1-237.3-942.2-338.8-1415.8-68.7-340.2-92.4-668.5-187.6-1006.7-60-172.8-156.9-109.2-262.8-68.5-437.8,168.6-1486.8,150.2-2190.1,151.7-1206.1,2.5-2289-113.8-2948.2-188.9-355.4-38.7-694.9-131.6-1035.9-238.1-340.7-54.6-123.4,658.7-720,1722.6-131,256.1-383.2,554.1-266.9,840.4,233.9-267.6,827.1,563.6,975.6,707.4,490,583.7,878.3,1301.8,912.9,2076.2,2.5,161.1-22,691.7-165.1,608.2,63,36.8,245.9,124,438.5,140.2,293.1,24.6,421.6,106.5,710.3,127.9,803.3,62.2,1609,78.5,2413.7,53.6,802.4-37.2,801.1,21,723-283.4-283.1-1325.3,369.1-2628,1553.8-3206.8,0,0,329.1-137.6,356.4,180.7Z"/>
      <path id="TDCWaistband" class="cls-2" d="M2786.7,1496.1c-158.1,395.5-374.9,758.7-641,1090.5,1081.9,403.5,3405.5,469.9,5219,428.7,187-4.2,424.7-29.9,610.7-50,196.8-21.3,343.5-80.5,532.3-140.4-379.5-370.4-356.1-914.2-524.9-1418.2-12.2-36.3-27.3-75.1-59.9-95.1-25.1-15.4-56.1-16.6-85.5-16.8-411.6-2.7-813.4,113.8-1218.8,185.2-1105.9,194.8-2271.3,60.9-3340-267.2-93.5-28.7-190.5-87.7-285-38.2-109.7,57.5-164,214.4-206.9,321.6Z"/>
    </g>
    <g id="Abrazo">
      <path id="AZRightCuff" class="cls-1" d="M6980.3,4105.8c172.6,23.2,1062.8,103.6,1534,331.4,44.7,21.6,90.1,45.4,120.7,83.1,55.1,68,11.5,107.9,4.5,174.9-8.2,79,7.3,145.2,50.8,214.6,44.2,70.6,103.6,131.7,147.8,202.4,167,267.2,87.2,606.4,1,906.3-18.2,63.4-36.4,131.4-13.8,193.5,10.7,29.5,30.1,55.4,45.1,83.1,63,116.4,46.8,255.7,70.6,384.8,24,130.3,89.4,251.8,106.9,383,31.3,234.6-92.8,459.8-213,666.8-50.3,86.6-103.5,176.3-189.4,231.9-60.8,39.3-133.2,58.3-204.1,76.6-343.1,88.6-652.1,177.1-995.2,265.7,33.1-411.6-23.9-665.6-133.2-970.3-51.4-143.5-174.4-271.8-208.9-419.9-46.6-200.4,5.3-350.1,88.9-505.3,83.5-155.2,215.9-299.1,342.2-425.4,245.3-245.2,337.8-422.6,364.9-619.4,25.6-186.1-40.7-399.8-195.1-516.5-236.7-179-865-760.3-724.6-741.4Z"/>
      <path id="AZLeftCuff" class="cls-1" d="M1576.2,4290.5c-269.1,323.7,42.9,609.7,314.8,772.2,23.3,13.9,48.4,28.5,60.3,52.1,14.8,29.4,5.2,64.1-4,95.4-45,153.3-75.5,310.5-91,469-10.7,109.7-14.4,220.4-36.6,328.5-86.7,421.4-448.5,773.9-455.3,1203.2-4.4,281.2,146.1,541.5,211,815.9,21.8,92.1,38.3,194.2,112.8,256.5,93.5,78.2,234.9,60.1,358.3,44.5,309.4-39,649.4-32.1,956.6,20.6,8-293.3,16.1-586.6,24.1-880,5-181.7,31.1-370.2,80.2-537,33.6-114.2,107.4-215.6,198.7-296.2,90-79.4,182.6-163,242.2-265.1,85.9-147.3,17.5-275.7-38.3-375.9-109-195.9-224.8-366.7-322.7-564.1-152.8-308.1-248.7-495.8-199-582.6,58.5-102.3,137.1-173.7,226.3-253.4,156.7-139.9,277.2-296.3,470.2-396.4-362.8-14.6-643.1-172.4-953.2-200.8-757-69.4-1014.4,123.6-1155.5,293.3Z"/>
      <path id="AZMiddle" class="cls-1" d="M6683.6,8809.8c172.3-14.4,357.4,15.8,506.1-68.4,245.9-139.3,283.8-460.9,266.8-733-15.1-241.5-52.9-486-160.9-705-70.8-143.5-171.9-277-202-432.9-57.9-299.6,157.7-579.8,369.9-807.7,212.2-227.9,448.4-480.6,442.8-785.2-2.9-155.6-74.4-309-193.7-415.3-243.6-217-508.8-421.6-704.7-678.7-19-25-37.3-51.5-64-68.9-20.1-13.1-43.6-20.1-66.8-27-509.8-151.6-1040.5-276.8-1550.3-428.5-511.3,168.9-1022.5,337.8-1533.8,506.8-61.6,20.3-123.8,41-179.1,73.8-55.9,33.1-103.1,77.7-149.9,121.9-135.9,128.6-271.8,257.1-407.7,385.7-29.8,28.2-60.6,57.9-73.9,95.9-15.8,45.2-4.2,94.5,9.4,140.3,105.8,355.9,325.4,669.3,509.1,995.3,44.6,79.1,88.3,163.4,86.9,253.2-3.3,220.4-255.7,348.6-390.1,528.1-122.7,163.8-145.8,374.9-160.4,575.6-27.3,375.6-38.8,752.3-34.4,1128.8,1,83.8,3.8,171.4,46.1,244.9,100.5,174.6,355.4,167.5,564.4,168.2,820.4,3,2222.5,3,3070.1-67.9Z"/>
      <path id="AZRghtTab" class="cls-1" d="M6185.8,3895.8c-312.8-81.9-705.8-176.9-866.4-247,260.1-111.1,539.5-243.6,751.2-425.4,211.7-181.8,365.6-445.9,337.3-716.1-18.4-175.5-111.5-338-233.1-471-121.6-133-271.1-239.8-421.3-343,333.5-221.1,725.3-361.7,1129.1-405.3,177.7-19.2,357.1-19.9,536-17.2,388.9,5.9,777.6,27.8,1164.5,65.7,586.2,57.3,306.9,562.1,232.5,927.2-28.3,139.1-37.3,281-46.3,422.4-25.7,408.1-51.5,816.1-77.2,1224.2-.9,15-1.8,30.5,4.2,44.4,8.1,18.5,26.8,30.5,44.1,42,133.8,89.7,237.3,234.1,233.3,389.9-4,155.8-166.4,309.1-329.8,302.5,32.2-57.4,31.7-131.8-16-178.5-47.6-46.7-113.1-72.1-176.7-96.1-271.8-102.9-547-187-836.4-227.2-153-21.2-308-43.4-461.7-58.3-243.8-23.6-726.6-170.2-967-233.2Z"/>
      <path id="AZLeftTab" class="cls-1" d="M1862.4,2279.6c-32.6,200.1-87,397.2-104,599-20.5,243.3,13.7,488.3-3.2,731.9-2.3,33.2-5.8,67.1-21,97-24.2,47.6-73.9,77.8-120.5,106.7-152.3,94.7-301.4,209.6-372.9,368.8-71.5,159.3-40.2,371.8,112.5,465.9,16.3,10,34.4,18.8,53.8,19.4,80.8,2.5,70.7-108.4,76.3-185.1,9.3-126.8,110.2-241.9,216.8-318.4,106.6-76.5,236.3-118.4,366.7-145.4,261.8-54.2,536.1-52.6,797.2,4.8,265.2,58.3,531.1,156.7,797.2,174.3,91,6,177.8-56.5,264.4-83.6,218.6-68.3,437.2-141.2,655.8-209.5,524.7-163.9,1048.7-335,1472.6-672,202.5-161,359.2-390,356.9-641.2-1.7-185.6-74.7-357-193.4-504.1-120.5-149.3-284.2-277.2-453.3-382.9-207.2-129.6-447.9-128.4-693.8-158.4-812-99.1-1617.4-246.6-2410-441.5-140.3-34.5-281.9-70.7-426.8-73.5-104.1-2-284.2,11-359.8,91.4-73.1,77.6-21.9,185.1-7.4,278.9,44.6,290.5,43.5,587.4-3.9,877.5Z"/>
    </g>
  </g>
</svg>