<?xml version="1.0" encoding="UTF-8"?>
<svg xmlns="http://www.w3.org/2000/svg" version="1.1" viewBox="0 0 8192 8192">
  <defs>
    <style>
      .cls-1 {
        stroke-width: 20.3px;
      }

      .cls-1, .cls-2, .cls-3 {
        fill: none;
        stroke: #231f20;
        stroke-miterlimit: 7.6;
      }

      .cls-4 {
        display: none;
      }

      .cls-2 {
        stroke-width: 20.5px;
      }

      .cls-3 {
        stroke-width: 18.7px;
      }
    </style>
  </defs>
  <!-- Generator: Adobe Illustrator 28.7.7, SVG Export Plug-In . SVG Version: 1.2.0 Build 194)  -->
  <g>
    <g id="Layer_1">
      <g id="Layer_1-2" data-name="Layer_1">
        <g>
          <g id="Brief" class="cls-4">
            <path id="BriefRightCuff" class="cls-3" d="M6462.4,4541c-267.6,168.5-507.8,428.8-727.3,755.6-221.2,329.3-359.4,666.6-457.7,1102.7-27.5,121.9-97.7,83.1,84.7,152.7,81.1,30.9,158.5,61.7,236,102.7,154.1,81.5,301.9,182.2,471.8,222.9,39.2,9.4,81.8,15.1,118.5-2.4,62.9-29.8,83.7-111.6,105.9-181.1,130.4-408.5,519.7-645.3,779.6-975.8,138.3-175.8,242-432.7,129.9-628.7-47.1-82.3-124.6-138.1-189.3-205.4-75.8-78.7-141.2-257.1-178.8-362.6,0,0-145.7-124.1-373.3,19.2h0v.2Z"/>
            <path id="BriefLeftCuff" class="cls-3" d="M2331.4,5497.2c-338.7-556.1-518.9-685.8-843.5-993.5-97.5-92.5-282-294.1-380.5-204.3-128.3,117-250.5,348.1-355.1,488.8-59.5,80.2-120,161.9-155.6,256.9s-43.4,207.2,1.8,297.3c85.4,170.4,302.1,188.6,464.4,274.3,284.8,150.4,398.9,515.2,466.2,846.7,18.4,91,36.1,184.2,79.6,265s118.5,148.6,205.6,154c93.9,5.8,177-58.7,256-113.2,165.4-114.1,350.4-195.8,542.9-239.8,30.8-7.1,143.1-23.2,131.3-54.5-55.1-145.8-16.5-203.8-98.8-411.4-70.6-178-157.9-309.6-314.3-566.2h0Z"/>
            <path id="BriefBody" class="cls-3" d="M6633.9,4085.2c-6.5-54.9-14.3-113.8-23-175.6h0c-2.2-15.4-4.4-30.9-6.8-46.7-.3-1.9-.5-3.7-.8-5.6-.2-1.4-.4-2.8-.6-4.2h0c-77.7-527.3-223.1-1243.7-334.1-1671l-35-153.1c-40.5-123.8-105.9-78.3-177.3-49.1-295.4,120.8-1003.3,107.6-1477.9,108.6-813.9,1.8-1544.7-81.5-1989.5-135.3-239.8-27.7-468.9-94.3-699.1-170.6,0,0-11.9-6.1-28.4-9-17.5-4.6-36.3-2.7-52.1,7.4-23.1,13.1-43.1,43.4-47.3,107.5-41.6,643.7-151.7,1347.7-474.8,1923.6-23.9,42.6-48.8,84.5-75.1,125.6-70,109.5-209.4,208.6-103.7,364.2,68.7-59.5,168.3,4.9,234.7,67.4,285.2,268.7,592.8,522.2,811.8,854.2,654.8,993,494,911.3,579.5,1229.8,36.6,136.1,197.4,44.8,503.9,28.1,264-14.3,748.6,4.9,1013,7.6,247.3,2.6,497.4,5.5,737.1,70,63.3,17,133,37.6,190.9,5.8,66.7-36.6,87.8-125.4,105.1-203.3,150-680.6,525.6-1301.9,1044.6-1728.4,146.8-120.6,355.9-226.5,506.5-111.4,31.5-183.8-168.6-157.5-201.6-436.7h0v.2Z"/>
            <path id="BriefWaistband" class="cls-3" d="M5384.5,2079.8c126.2-3,286.6-21.4,412.1-35.9,132.8-15.2,231.8-57.6,359.2-100.7-256.2-265.4-240.3-655-354.2-1016.1-8.2-26-18.4-53.8-40.4-68.1-16.9-11-37.8-11.9-57.6-12.1-277.8-2-548.9,81.5-822.5,132.7-746.3,139.6-1532.7,43.7-2253.9-191.5-63.1-20.6-128.6-62.9-192.3-27.4-74,41.2-110.7,153.6-139.6,230.4-106.7,283.3-253,543.6-432.6,781.3,730.1,289.1,2298.1,336.6,3521.9,307.1v.2h-.1Z"/>
          </g>
          <g id="Traditional" class="cls-4">
            <path id="TDCRightCuff" class="cls-1" d="M5826.6,6603.9c47.7,5.5,95.1,18.4,143,15.1s98.8-27.8,114.8-73.3c6.3-17.8,6.7-37.2,7.3-56.1,12.1-397.8,140.3-795.4,384.6-1108.4,81.4-104.2,174.7-198.5,270.2-289.8,117.6-112.3,238.9-220.7,363.6-324.6,36.7-30.6,76.2-65,84.1-112.2,11.5-68.6-46.7-126.2-95-176-76-78.3-139.5-169.9-177.9-272.2-12-31.9-22-65.5-43.4-91.9-34.9-43-95-55.6-149.8-49.5s-105.8,30.7-154.4,57c-430.1,231.3-779.3,608.3-974.5,1057.8-97,223.4-155.7,463.2-175,706.1-9.8,123.5-6.3,247.7,4.3,371.1,8,92.8,41.3,262.1,58.9,337.2,12.2,52.1,67.2,34.1,114.8,25.9,74.7-12.8,148.3-24.8,224.3-16v-.2h.1Z"/>
            <path id="TDCLeftCuff" class="cls-1" d="M925.8,3901.9s-165.1,231-266.3,332.2c-236.3,284.7,385.4,374.1,644.4,968.5,97.4,223.5,203.8,447.8,231.4,688.1,24.3,148.7-34.1,325.8,33.7,445.4,97.8,164.3,323.4,121.6,488.2,124.3,84.1-4.7,148.7,60.8,213.1,13.8,78.1-57,126-611.5-41.7-1040-111.8-285.5-312.1-669.3-581.5-986.5-298.7-351.6-567.6-659.9-721.2-545.9h-.1Z"/>
            <path id="TDCBody" class="cls-1" d="M6918.8,4223.4c4.6,53.8,40-100.7,23.7-152.1-180.2-325.5-180-714.7-257-1073.9-52.1-258-70.1-507.1-142.3-763.6-45.5-131.1-119-82.8-199.3-52-332.1,127.9-1127.8,113.9-1661.2,115.1-914.8,1.9-1736.2-86.3-2236.3-143.3-269.6-29.4-527.1-99.8-785.7-180.6-258.4-41.4-93.6,499.6-546.1,1306.6-99.4,194.3-290.7,420.3-202.4,637.5,177.4-203,627.4,427.5,740,536.6,371.7,442.7,666.2,987.4,692.5,1574.8,1.9,122.2-16.7,524.7-125.2,461.3,47.8,27.9,186.5,94.1,332.6,106.3,222.3,18.7,319.8,80.8,538.8,97,609.3,47.2,1220.5,59.5,1830.8,40.7,608.6-28.2,607.6,15.9,548.4-215-214.7-1005.3,280-1993.4,1178.6-2432.4,0,0,249.6-104.4,270.3,137.1v-.2h-.2Z"/>
            <path id="TDCWaistband" class="cls-1" d="M2113.8,1134.8c-119.9,300-284.4,575.5-486.2,827.2,820.6,306.1,2583.1,356.4,3958.7,325.2,141.8-3.2,322.1-22.7,463.2-37.9,149.3-16.2,260.6-61.1,403.8-106.5-287.9-281-270.1-693.4-398.1-1075.7-9.3-27.5-20.7-57-45.4-72.1-19-11.7-42.6-12.6-64.9-12.7-312.2-2-617,86.3-924.5,140.5-838.8,147.8-1722.8,46.2-2533.5-202.7-70.9-21.8-144.5-66.5-216.2-29-83.2,43.6-124.4,162.6-156.9,243.9h0v-.2Z"/>
          </g>
          <g id="Abrazo">
            <path id="AZRightCuff" class="cls-2" d="M5294.7,3114.3c130.9,17.6,806.2,78.6,1163.6,251.4,33.9,16.4,68.3,34.4,91.6,63,41.8,51.6,8.7,81.8,3.4,132.7-6.2,59.9,5.5,110.1,38.5,162.8,33.5,53.6,78.6,99.9,112.1,153.5,126.7,202.7,66.1,460,.8,687.4-13.8,48.1-27.6,99.7-10.5,146.8,8.1,22.4,22.8,42,34.2,63,47.8,88.3,35.5,194,53.6,291.9,18.2,98.8,67.8,191,81.1,290.5,23.7,177.9-70.4,348.8-161.6,505.8-38.2,65.7-78.5,133.7-143.7,175.9-46.1,29.8-101,44.2-154.8,58.1-260.2,67.2-494.6,134.3-754.9,201.5,25.1-312.2-18.1-504.9-101-736-39-108.8-132.3-206.2-158.5-318.5-35.3-152,4-265.6,67.4-383.3,63.3-117.7,163.8-226.9,259.6-322.7,186.1-186,256.2-320.5,276.8-469.8,19.4-141.2-30.9-303.3-148-391.8-179.5-135.8-656.1-576.7-549.6-562.4h0v.2Z"/>
            <path id="AZLeftCuff" class="cls-2" d="M1195.6,3254.4c-204.1,245.5,32.5,462.5,238.8,585.7,17.7,10.5,36.7,21.6,45.7,39.5,11.2,22.3,3.9,48.6-3,72.4-34.1,116.3-57.3,235.5-69,355.7-8.1,83.2-10.9,167.2-27.8,249.2-65.8,319.6-340.2,587-345.4,912.6-3.3,213.3,110.8,410.7,160,618.9,16.5,69.9,29.1,147.3,85.6,194.6,70.9,59.3,178.2,45.6,271.8,33.8,234.7-29.6,492.6-24.3,725.6,15.6,6.1-222.5,12.2-444.9,18.3-667.5,3.8-137.8,23.6-280.8,60.8-407.3,25.5-86.6,81.5-163.5,150.7-224.7,68.3-60.2,138.5-123.6,183.7-201.1,65.2-111.7,13.3-209.1-29.1-285.1-82.7-148.6-170.5-278.1-244.8-427.9-115.9-233.7-188.6-376.1-150.9-441.9,44.4-77.6,104-131.8,171.7-192.2,118.9-106.1,210.3-224.7,356.7-300.7-275.2-11.1-487.8-130.8-723-152.3-574.2-52.6-769.4,93.8-876.5,222.5v.2h.1Z"/>
            <path id="AZMiddle" class="cls-2" d="M5069.6,6682.4c130.7-10.9,271.1,12,383.9-51.9,186.5-105.7,215.3-349.6,202.4-556-11.5-183.2-40.1-368.6-122-534.8-53.7-108.8-130.4-210.1-153.2-328.4-43.9-227.3,119.6-439.8,280.6-612.7,161-172.9,340.1-364.5,335.9-595.6-2.2-118-56.4-234.4-146.9-315-184.8-164.6-385.9-319.8-534.5-514.8-14.4-19-28.3-39.1-48.5-52.3-15.2-9.9-33.1-15.2-50.7-20.5-386.7-115-789.2-210-1175.9-325-387.8,128.1-775.6,256.2-1163.4,384.4-46.7,15.4-93.9,31.1-135.9,56-42.4,25.1-78.2,58.9-113.7,92.5-103.1,97.5-206.2,195-309.2,292.6-22.6,21.4-46,43.9-56.1,72.7-12,34.3-3.2,71.7,7.1,106.4,80.3,270,246.8,507.7,386.2,755,33.8,60,67,123.9,65.9,192.1-2.5,167.2-194,264.4-295.9,400.6-93.1,124.2-110.6,284.4-121.7,436.6-20.7,284.9-29.4,570.6-26.1,856.2.8,63.6,2.9,130,35,185.8,76.2,132.4,269.6,127.1,428.1,127.6,622.3,2.3,1685.8,2.3,2328.7-51.5h-.1Z"/>
            <path id="AZRghtTab" class="cls-2" d="M4692,2955c-237.3-62.1-535.4-134.2-657.2-187.4,197.3-84.3,409.2-184.8,569.8-322.7s277.3-338.2,255.8-543.2c-14-133.1-84.6-256.4-176.8-357.3s-205.6-181.9-319.6-260.2c253-167.7,550.2-274.4,856.4-307.4,134.8-14.6,270.9-15.1,406.6-13,295,4.5,589.8,21.1,883.3,49.8,444.6,43.5,232.8,426.4,176.4,703.3-21.5,105.5-28.3,213.1-35.1,320.4-19.5,309.6-39.1,619-58.6,928.6-.7,11.4-1.4,23.1,3.2,33.7,6.1,14,20.3,23.1,33.5,31.9,101.5,68,180,177.6,177,295.7-3,118.2-126.2,234.5-250.2,229.5,24.4-43.5,24-100-12.1-135.4s-85.8-54.7-134-72.9c-206.2-78.1-414.9-141.8-634.4-172.3-116.1-16.1-233.6-32.9-350.2-44.2-184.9-17.9-551.1-129.1-733.5-176.9h-.3Z"/>
            <path id="AZLeftTab" class="cls-2" d="M1412.7,1729.1c-24.7,151.8-66,301.3-78.9,454.4-15.5,184.5,10.4,370.4-2.4,555.2-1.7,25.2-4.4,50.9-15.9,73.6-18.4,36.1-56.1,59-91.4,80.9-115.5,71.8-228.6,159-282.9,279.7-54.2,120.8-30.5,282,85.3,353.4,12.4,7.6,26.1,14.3,40.8,14.7,61.3,1.9,53.6-82.2,57.9-140.4,7.1-96.2,83.6-183.5,164.4-241.5,80.9-58,179.2-89.8,278.1-110.3,198.6-41.1,406.6-39.9,604.7,3.6,201.2,44.2,402.8,118.9,604.7,132.2,69,4.6,134.9-42.9,200.6-63.4,165.8-51.8,331.6-107.1,497.4-158.9,398-124.3,795.5-254.1,1117-509.7,153.6-122.1,272.5-295.8,270.7-486.4-1.3-140.8-56.7-270.8-146.7-382.4-91.4-113.2-215.6-210.3-343.8-290.4-157.2-98.3-339.7-97.4-526.3-120.1-615.9-75.2-1226.8-187.1-1828-334.9-106.4-26.2-213.8-53.6-323.7-55.8-79-1.5-215.6,8.3-272.9,69.3-55.4,58.9-16.6,140.4-5.6,211.6,33.8,220.3,33,445.6-3,665.6h-.2.1Z"/>
          </g>
        </g>
      </g>
    </g>
  </g>
</svg>